<svg xmlns="http://www.w3.org/2000/svg" xmlns:xlink="http://www.w3.org/1999/xlink" width="300" height="300" class="icon" p-id="7310" t="1633324444059" version="1.1" viewBox="0 0 1024 1024"><defs><style type="text/css"/></defs><path fill="#F8D800" d="M725.333333 213.333333a213.333333 213.333333 0 0 0-202.24 145.493334 42.666667 42.666667 0 0 0 10.666667 42.666666 189.866667 189.866667 0 0 1 34.56 44.8 42.666667 42.666667 0 0 0 37.12 21.333334h98.56a146.773333 146.773333 0 0 1 128 72.106666 42.666667 42.666667 0 0 0 35.84 20.906667 42.666667 42.666667 0 0 0 35.84-19.2A213.333333 213.333333 0 0 0 725.333333 213.333333z" p-id="7311"/><path fill="#BBDEFB" d="M904.96 497.92A234.24 234.24 0 0 0 704 384h-75.093333a282.026667 282.026667 0 0 0-35.413334-42.666667A298.666667 298.666667 0 1 0 384 853.333333h320a235.093333 235.093333 0 0 0 234.666667-234.666666 228.693333 228.693333 0 0 0-33.706667-120.746667z" p-id="7312"/><path fill="#486675" d="M938.666667 426.666667a213.333333 213.333333 0 0 0-388.693334-120.32A295.68 295.68 0 0 0 384 256a298.666667 298.666667 0 0 0 0 597.333333h320a235.093333 235.093333 0 0 0 234.666667-234.666666 225.706667 225.706667 0 0 0-22.186667-98.56A209.066667 209.066667 0 0 0 938.666667 426.666667z m-213.333334-128a128 128 0 0 1 128 128 89.173333 89.173333 0 0 1 0 10.666666l-3.413333-2.133333a269.653333 269.653333 0 0 0-29.013333-20.053333 223.146667 223.146667 0 0 0-32.426667-14.933334l-10.24-3.413333a259.84 259.84 0 0 0-26.026667-7.253333h-10.24A209.493333 209.493333 0 0 0 704 384h-75.093333c-4.693333-6.826667-9.813333-13.653333-14.933334-20.053333A128 128 0 0 1 725.333333 298.666667z m-21.333333 469.333333H384A213.333333 213.333333 0 0 1 384 341.333333a210.346667 210.346667 0 0 1 149.76 61.866667 189.866667 189.866667 0 0 1 34.56 44.8 42.666667 42.666667 0 0 0 37.12 21.333333h98.56a147.2 147.2 0 0 1 128 72.96 142.08 142.08 0 0 1 21.333333 76.373334 149.333333 149.333333 0 0 1-149.333333 149.333333z" p-id="7313"/></svg>